<svg width="320" height="480" xmlns="http://www.w3.org/2000/svg">
  <path fill="transparent" d="M-1-1h322v482H-1z"/>
  <g>
    <path fill="#214747" d="M211.813 177.24H108.195c-8.353 0-15.145 6.79-15.145 15.153v95.231c0 8.353 6.792 15.135 15.145 15.135h103.618c8.352 0 15.137-6.782 15.137-15.135v-95.231c0-8.363-6.785-15.152-15.137-15.152zm-32.176 22.535c8.077 0 14.627 6.55 14.627 14.627s-6.55 14.628-14.627 14.628c-8.08 0-14.628-6.551-14.628-14.628s6.548-14.627 14.628-14.627zm27.427 88.985H115.03c-4.04 0-5.84-2.923-4.018-6.529l25.104-49.722c1.819-3.606 5.285-3.927 7.74-.72l25.243 32.989c2.455 3.208 6.746 3.481 9.586.606l6.175-6.253c2.838-2.874 7.019-2.518 9.335.79l15.99 22.841c2.312 3.314.918 5.998-3.122 5.998z"/>
  </g>
</svg>